<svg width="1024" height="1024" viewBox="0 0 1024 1024" fill="none" xmlns="http://www.w3.org/2000/svg">
<rect width="1024" height="1024" fill="#0D4FFB"/>
<path d="M565.467 917.005C559.363 917.005 554.114 914.93 549.72 910.779C545.325 906.629 542.518 901.258 541.297 894.666C535.438 855.359 529.212 822.4 522.62 795.789C516.028 769.178 507.483 747.327 496.985 730.237C486.487 713.147 472.815 699.476 455.97 689.222C439.124 678.968 417.518 670.667 391.15 664.319C365.027 657.972 332.679 652.234 294.104 647.107C287.269 646.375 281.653 643.689 277.259 639.051C273.108 634.412 271.033 628.919 271.033 622.571C271.033 616.224 273.108 610.73 277.259 606.092C281.653 601.453 287.269 598.768 294.104 598.035C332.679 593.885 365.149 588.88 391.517 583.021C418.128 576.917 439.979 568.616 457.068 558.118C474.158 547.62 487.952 533.704 498.45 516.37C508.948 499.036 517.371 476.941 523.719 450.086C530.311 422.986 536.17 389.783 541.297 350.477C542.273 343.885 544.959 338.636 549.354 334.729C553.992 330.579 559.363 328.504 565.467 328.504C571.814 328.504 577.186 330.579 581.58 334.729C585.975 338.636 588.782 343.885 590.003 350.477C595.618 389.783 601.722 422.864 608.313 449.72C614.905 476.575 623.328 498.67 633.582 516.004C644.08 533.338 657.874 547.254 674.964 557.752C692.054 568.006 713.66 576.185 739.783 582.288C766.15 588.147 798.621 593.396 837.195 598.035C844.031 599.012 849.524 601.819 853.675 606.458C857.825 610.853 859.9 616.224 859.9 622.571C859.9 628.919 857.703 634.412 853.309 639.051C849.158 643.689 843.787 646.375 837.195 647.107C798.621 651.502 766.028 656.751 739.417 662.854C713.05 668.714 691.321 676.771 674.231 687.024C657.142 697.278 643.348 711.194 632.85 728.772C622.352 746.106 613.929 768.201 607.581 795.057C601.233 822.156 595.374 855.359 590.003 894.666C588.782 901.258 585.975 906.629 581.58 910.779C577.43 914.93 572.059 917.005 565.467 917.005ZM308.387 510.145C299.598 510.145 294.715 505.384 293.738 495.862C290.809 471.937 287.635 453.138 284.217 439.466C281.043 425.55 275.916 415.174 268.836 408.338C261.756 401.258 251.136 396.009 236.976 392.591C223.06 388.929 203.772 385.145 179.114 381.238C169.104 379.773 164.1 374.769 164.1 366.224C164.1 357.679 168.494 352.674 177.283 351.209C202.43 346.57 222.083 342.42 236.243 338.758C250.647 334.852 261.39 329.603 268.47 323.011C275.794 316.175 281.043 306.043 284.217 292.615C287.635 279.188 290.809 260.389 293.738 236.219C294.715 226.697 299.598 221.937 308.387 221.937C317.42 221.937 322.425 226.575 323.401 235.853C326.575 260.511 329.749 279.798 332.923 293.714C336.341 307.63 341.59 318.128 348.67 325.208C355.75 332.288 366.37 337.537 380.53 340.955C394.69 344.373 414.344 347.791 439.49 351.209C443.396 351.697 446.57 353.284 449.012 355.97C451.697 358.655 453.04 362.073 453.04 366.224C453.04 374.524 448.646 379.529 439.856 381.238C414.466 385.877 394.69 390.149 380.53 394.056C366.37 397.718 355.75 402.967 348.67 409.803C341.59 416.639 336.341 426.893 332.923 440.564C329.749 453.992 326.575 472.669 323.401 496.595C322.913 500.501 321.326 503.797 318.641 506.482C315.955 508.924 312.537 510.145 308.387 510.145ZM486.365 251.6C480.75 251.6 477.576 248.67 476.844 242.811C474.158 227.918 471.839 216.321 469.886 208.021C467.933 199.476 464.759 193.006 460.364 188.611C456.214 184.217 449.744 180.799 440.955 178.357C432.41 175.672 420.325 172.986 404.7 170.301C398.597 169.324 395.545 166.15 395.545 160.779C395.545 155.408 398.475 152.234 404.334 151.258C419.959 148.084 432.166 145.276 440.955 142.835C449.744 140.394 456.214 136.976 460.364 132.581C464.759 128.187 467.933 121.839 469.886 113.538C471.839 105.237 474.158 93.7627 476.844 79.1143C477.576 73.0107 480.75 69.959 486.365 69.959C491.736 69.959 494.91 72.8887 495.887 78.748C498.328 93.6406 500.525 105.359 502.479 113.904C504.676 122.449 507.85 128.919 512 133.313C516.395 137.708 522.864 141.126 531.409 143.567C540.198 145.765 552.527 148.328 568.396 151.258C574.256 152.234 577.186 155.408 577.186 160.779C577.186 166.15 574.256 169.324 568.396 170.301C552.771 173.23 540.564 176.038 531.775 178.724C522.986 181.165 516.517 184.583 512.366 188.978C508.216 193.372 505.042 199.842 502.845 208.387C500.647 216.688 498.328 228.162 495.887 242.811C494.91 248.67 491.736 251.6 486.365 251.6Z" fill="white"/>
</svg>
